<?xml version="1.0" encoding="UTF-8"?>
<svg id="_レイヤー_1" data-name="レイヤー 1" xmlns="http://www.w3.org/2000/svg" viewBox="0 0 205.57 213.06">
  <defs>
    <style>
      .cls-1 {
        fill: #e45827;
      }

      .cls-2 {
        fill: rgba(236, 126, 140, .7);
      }

      .cls-3 {
        fill: #54af61;
      }

      .cls-4 {
        fill: #5a207c;
      }

      .cls-5 {
        fill: none;
      }

      .cls-5, .cls-6 {
        stroke: #a6ddac;
        stroke-miterlimit: 10;
        stroke-width: 2.96px;
      }

      .cls-7 {
        fill: #8c51af;
      }

      .cls-8 {
        fill: #93d19c;
      }

      .cls-9 {
        fill: #ffb02d;
      }

      .cls-10 {
        fill: #a6ddac;
      }

      .cls-6 {
        fill: #eeffed;
      }

      .cls-11 {
        fill: #fcd141;
      }

      .cls-12 {
        fill: #ec7e8c;
        opacity: .7;
      }

      .cls-13 {
        fill: #ffdc42;
      }

      .cls-14 {
        fill: #e5a632;
      }

      .cls-15 {
        fill: #80c18b;
      }

      .cls-16 {
        fill: #257a74;
      }

      .cls-17 {
        fill: #f5ab2d;
      }

      .cls-18 {
        fill: #fff9bb;
      }
    </style>
  </defs>
  <path class="cls-17" d="M45.73,114.54c-12.04-12.19-37.12-23.17-43.48-13.57-4.1,6.19-2.46,25.05,3.76,35.62,4.02,6.83,5.67,7.01,14.7,12.71,9.03,5.7,25.01-34.76,25.01-34.76Z"/>
  <path class="cls-10" d="M46.28,109.47c-4.15-2-8.54-3.62-12.61-5.04-8.58-2.98-14.37-10.46-12.48-2.53,2.11,8.83-7.9,24.51-12.19,37.89-3.72,11.62,9.05,12.61,16.01,16.01,9.18,4.48,15.14-5.45,16.44-6.41,18.44-13.64,9.66-37.6,4.82-39.93Z"/>
  <path class="cls-14" d="M160.31,201.45c-.76-1.25-2.4-1.65-3.65-.88-.17.11-.63.16-1.36-.05-1.87-.54-4.01-2.29-5.31-4.28.01-.17.02-.37.04-.59.1-1.94-2.67-2.9-4.54-2.41-5.7-1.77-3.89-5.69-7.15-9.81-2.2-2.78-7.57.29-5.85,5.03,1.47,4.03,7.13,4.13,11.04,7.29,0,.15.02.3.05.46-2.69,2.85-7.22,8.62-5.44,13.8.47,1.39,1.98,2.12,3.37,1.65,1.39-.47,2.13-1.98,1.65-3.37-.36-1.04.09-2.5.94-4.02,0,.05.02.1.02.15,0,.06.02.11.02.16.06.39.12.78.21,1.16,0,0,0,.01,0,.02.08.38.18.75.29,1.11.01.05.03.1.04.15.11.35.23.69.37,1.03.02.06.05.12.08.18.14.33.3.65.47.96.03.05.05.09.08.14.18.32.38.63.6.92,0,0,0,0,0,0,.22.29.46.56.71.81.04.04.07.07.1.11.25.24.52.46.81.67.05.04.1.07.16.11.29.2.6.38.93.54.05.02.1.04.15.07.35.16.72.3,1.12.42.24.07.48.1.72.1,1.16,0,2.22-.77,2.55-1.94.4-1.41-.43-2.87-1.84-3.27-.19-.05-.36-.13-.52-.23-.27-.16-.49-.39-.7-.66-.04-.06-.09-.11-.14-.17-.06-.09-.12-.21-.17-.31-.05-.09-.1-.17-.14-.26-.07-.14-.12-.3-.18-.45-.02-.07-.05-.13-.08-.2-.23-.71-.37-1.52-.45-2.38,1.42,1.11,2.97,1.97,4.52,2.41.82.23,1.61.35,2.36.35,1.19,0,2.28-.29,3.23-.87,1.25-.76,1.65-2.4.88-3.65Z"/>
  <path class="cls-16" d="M16.24,164.04c.44,20.06,28.79,17.88,37.94,26.17,8.25,7.46-2.62-16.57-19.63-22.68-16.63-5.97-18.42-8.21-18.32-3.49Z"/>
  <path class="cls-17" d="M41.17,170.25c-.87,5.45-9.19,14.21-11.62,17.49-2.67,3.61,3.5,5.59,4.44,1.33,1.16-5.28,12.54-12.06,14.22-14.58,2.27-3.43-6.11-10.02-7.04-4.24Z"/>
  <path class="cls-17" d="M154.63,170.77c2.14,11.5,27.82,23.81,35.91,22.76,10.02-1.3,3.13,16.04-6.4,12.46-16-6-30.53-19.02-33.67-27.57-4.37-11.89,2.02-19.15,4.16-7.65Z"/>
  <path class="cls-11" d="M141.09,175.16c10.99,6.53,36.24,11.84,43.12,6.3,7.28-5.85,17.7,10.36,7.43,13.3-11.29,3.23-28.4-4.86-35.55-7.77-15.42-6.28-18.63-13.98-15.01-11.83Z"/>
  <path class="cls-17" d="M160.53,6.82c-3.1-2.29-5.54-2.11-9.11-1.03-2,.61-3.68,2.15-4.64,4.07-.68,1.36-.45,3.7,2.31,5.64,2.19,1.53,6.64,3.66,9.16,6.04s3.98,5.6,3.98,5.6c.28-.8.98-1.66,1.49-2.18,2.07-2.08,2.88-.14,3.07-.24,2.03-1.11-.15.28-.64-3.54-.09-.7-.62-2.57-.67-3.1-.22-2.38-2.2-9.22-4.94-11.25Z"/>
  <path class="cls-17" d="M195,19.47c-1.17-2.73-3.43-4.16-6-4.31-7.15-.41-15.84,7.4-17.06,8.24l-.72.49-.41,1.46s1.53,1.91,1.31,4.79c4.12-1.79,6.25-1.44,8.34-.97,5.62,1.25,12.22,1.71,14.18-.3,1.77-1.82,1.63-6.43.36-9.4Z"/>
  <path class="cls-13" d="M183.58,6.25c-1.49-3.77-12.94-10.35-18.3-2.74-1.73,2.45-.14,11.73-.39,17.77-.11,2.6-.52,2.91.84,2.92,2.25.01,4.72,1.34,5.98,2.69.97,1.04,1.32,1.05,3.4-1.89,1.41-1.99,5.8-8,7.45-10.53,1.5-2.3,2.01-5.73,1.03-8.22Z"/>
  <path class="cls-6" d="M126.52,45.55c21.63,2.36,35.68-7.74,35.64-16.72-.04-7.34,11.32-2.9,10.48,1.79-.58,3.22-3.68,14.56-14.27,20.35-7.98,4.36-17.68,5.9-21.03,5.25-3.35-.65-10.81-10.66-10.81-10.66Z"/>
  <path class="cls-11" d="M108.96,38.72c31.63,1.95,49.73,12.74,61.23,34.08,11.5,21.34,11.3,36.4,9.9,51.48-1.59,17.12-13.25,46.48-55.82,57.82-24.15,6.43-67.52-3.47-84.52-26.66-24.56-33.52-8.78-73.78,5.66-91.7,12.07-14.98,35.73-26.73,63.55-25.02Z"/>
  <path class="cls-4" d="M115.82,89.45c-1.59-.27-3.18.12-4.61,1.15-2.15,1.55-3.78,4.49-4.26,7.69-1.23,8.12,3.8,9.81,6.02,10.15,1.36.21,2.63.11,3.75-.3.62-.22,1.2-.54,1.73-.95,1.67-1.3,2.69-3.44,2.95-6.18.47-5.06-1.33-10.83-5.58-11.56Z"/>
  <path class="cls-4" d="M51.94,85.85c-.79-1.17-1.96-2.65-3.32-2.79-3.6-.37-6.71,3.52-7.62,8.32-.89,4.67.77,8.33,4.11,9.1,1.47.34,2.65.26,3.6-.09,2.65-.95,3.53-3.93,3.96-5.42.64-2.16,1-6.54-.73-9.12Z"/>
  <path class="cls-18" d="M59.76,96.47c8.19-5.69,27.05-1.28,30.94,7.35,1.62,3.6-2.17,6.6-5.06,9.5-8.81,8.85-13.36,12.55-20.53,11.18-6.68-1.28-11.08-16.08-7.37-24.33.64-1.42,1-2.98,2.03-3.7Z"/>
  <path class="cls-17" d="M63.66,100.58c-.24,1.09-.29,1.92-.99,1.77-.7-.15-1.07-1.16-.84-2.25.24-1.09.99-1.85,1.69-1.7.7.15.37,1.09.13,2.18Z"/>
  <path class="cls-17" d="M78.29,102.42c-.25,1.09-1.28,1.78-2.3,1.54-1.02-.24-.7-.86-.45-1.95.25-1.09.35-2.23,1.36-1.99,1.02.24,1.64,1.31,1.38,2.4Z"/>
  <path class="cls-5" d="M146.33,43.98c5.81-.75,9.43,6.02,6.51,9.44"/>
  <path class="cls-5" d="M154.06,40.51c5.55-.64,8.63,5.61,6.35,9.2"/>
  <path class="cls-5" d="M158.98,36.39c5.02-2.19,8.64,3.67,7.29,7.68"/>
  <path class="cls-5" d="M161.66,31.84c2.77-3.28,9.09-.11,8.76,5.47"/>
  <path class="cls-8" d="M183.74,111.98c-1.87-5.11-31.22,8.88-53.78,12.8-48.76,8.47-43.68.15-65.84,9.67-1.6.69-3.1,1.54-4.53,2.51-2.99-3.75-6.4-7.3-10.8-10.47-7.95-5.72-18.71-10.12-20.94-15.75-.27-.67-.96-1.07-1.67-.96-.72.1-1.26.69-1.31,1.41-2.35,29.99,1.94,32.78,4.24,34.29.11.07.22.13.25.14.18,2.74,2.42,5.68-1.88,8.9-1.06.79-3.03,3.94-4.8,5.67-2.6,2.55-5.17.56-6.45,1.69.44,1.31,4.94,6.76,8.72,6.98,7.41.44,14.39,5.67,20.93,17.45,2.09,3.75,2.62-1.31,3.05-6.11,1.74,4.36,20.7,19.8,40.82,14.84,12.06-2.97,15.59-1.31,19.63-1.31,13.27,0,26.86-1.72,44.05,1.31,14.83,2.62,20.06-4.8,16.66-11.29-3.26-6.2-1.94-11.94-.47-15.42,1.8-.42,3.26-1.18,3.96-2.46,2.09-3.84-2.97-12.12,1.09-21.06s10.81-28.01,9.06-32.8Z"/>
  <path class="cls-1" d="M172.54,148.73c3.47-3.01,4.24,9.85-.46,11.13-6.97,1.89-9.03,2.93-12.01,2.06l-1.89-8.97s10.58-.94,14.35-4.21Z"/>
  <path class="cls-12" d="M42.69,111.51c-2.27,3.41-7.91,4.34-12.6,2.08-4.69-2.26-6.65-6.86-4.38-10.27,2.27-3.41,7.91-4.34,12.6-2.08,4.69,2.26,6.65,6.86,4.38,10.27Z"/>
  <path class="cls-9" d="M33.64,189.07c.07-.11.12-.22.18-.33.03-.06.06-.11.08-.17,0-.02.02-.04.03-.06,1.85-5.05,4.7-14.08,2.95-17.81-.5-1.07-1.36-1.87-2.42-2.24-1.6-.56-3.36.28-3.92,1.88-.42,1.18-.07,2.45.79,3.26.04.63-.08,1.63-.32,2.88-2.02-5.15-4.97-10.03-8.97-10.73-1.68-.29-3.27.83-3.56,2.51-.29,1.68.83,3.27,2.51,3.56.86.2,2.18,2.15,3.51,5.16-2.65-1.48-5.93-2.16-10.39-1.02-1.65.42-2.64,2.1-2.22,3.74.42,1.65,2.1,2.65,3.74,2.22,4.95-1.26,6.84.58,10.65,4.88.81.92,1.66,1.86,2.57,2.79.02.02.05.04.08.06.1.09.2.18.32.26.05.03.09.07.14.1.15.1.32.19.49.26.02.01.05.02.08.02.15.06.3.1.46.14.07.01.13.02.2.03.08.01.16.03.24.04.07,0,.14,0,.21,0,0,0,0,0,0,0h0s0,0,0,0c.18,0,.36-.02.53-.05.06,0,.11-.03.16-.04.12-.03.24-.06.35-.1.06-.02.12-.05.18-.07.11-.05.22-.11.33-.17.05-.03.1-.05.15-.09.15-.1.29-.22.43-.34,0,0,.01,0,.02-.01.02-.02.03-.04.05-.06.11-.11.2-.23.29-.35.04-.05.07-.1.1-.16Z"/>
  <path class="cls-2" d="M138.3,119.67c-.51,4.59-7.21,7.61-14.97,6.75-7.76-.86-13.63-5.28-13.12-9.87s7.21-7.61,14.97-6.75c7.76.86,13.63,5.28,13.12,9.87Z"/>
  <path class="cls-7" d="M146.65,157.5c-31.84,4.8-82.91-2.31-95.08-5.67-13.53-3.74-21.85-5.66-22.45-6.37-1.98-2.35-2.85,6.37-1.11,7.68.94.71,11.16,6.52,25.3,10.03,12.06,3,57.57,11.78,95.08,6.98,13.47-1.72,6.63-13.91-1.74-12.65Z"/>
  <path class="cls-3" d="M44.15,171.02s8.11,14.4,27.74,23.56c-6.98-1.31-20.76-.44-26.87-9.6-1-1.5,2.18-5.67-.87-13.96Z"/>
  <path class="cls-3" d="M59.42,137s-7.41,4.8-11.34,11.34c.87-4.36,9.16-14.39,9.6-13.52s1.74,2.18,1.74,2.18Z"/>
  <path class="cls-17" d="M173.38,118.94c18.98,5.78,31.35,26.8,32.15,42.48.19,3.75.03,12.76-4.28,14.86-4.84,2.35-19.24,4.69-35.2-2.41-6.56-2.92-9.68-3.3-18.08-13.68-4.34-5.36,10.89-16.76,10.91-23.21.05-13.52,11.78-18.87,14.5-18.04Z"/>
  <path class="cls-10" d="M186.33,123.05c-4.99-5.13-7.64-7.73-17.67-5.99s-13.14,5.9-17.24,14.51c-3.81,8.02-4.62,16.61-4.78,21.57-.21,6.42.5,14.72,4.8,18.32,3.34,2.79,4.8,2.18,14.6,7.53,6.33,3.46,9.61,3.69,11.56,2.5,1.31-12.65,12.65-16.14,19.63-34.89,2.18-5.85,6.37,0,.44-10.9-2.38-4.37-8.06-9.28-11.34-12.65Z"/>
  <path class="cls-15" d="M151.88,148.78s5.06,23.12,12.47,29.22c-6.98-1.31-5.23-2.18-10.9-5.67-1.53-.94-6.54-9.6-1.57-23.55Z"/>
</svg>